<svg aria-hidden="true" style="position:absolute;width:0;height:0;overflow:hidden" xmlns="http://www.w3.org/2000/svg">
  <defs>
    <symbol id="icon-close-18" viewBox="0 0 32 32">
      <path d="m27 7-2-2-8 8-8-8-2 2 8 8-8 8 2 2 8-8 8 8 2-2-8-8 8-8z"/>
    </symbol>
    <symbol id="icon-close-24" viewBox="0 0 32 32">
      <path d="m31 3-3-3-12 13L3 0 0 3l13 13L0 28l3 3 13-12 12 12 3-3-12-12L31 3z"/>
    </symbol>
    <symbol id="icon-menu-24" viewBox="0 0 32 32">
      <path d="M0 9V5h32v4H0zm0 9h32v-4H0v4zm0 9h32v-4H0v4z"/>
    </symbol>
    <symbol id="icon-email-18" viewBox="0 0 32 32">
      <path d="M27 5H5L3 8v16l2 3h22l2-3V8l-2-3zm-1 6-9 6h-2l-9-6-1-1 2-1 9 6 9-6a1 1 0 1 1 1 2z"/>
    </symbol>
    <symbol id="icon-phone-18" viewBox="0 0 32 32">
      <path d="m25 20-3-1-2 1-3 2c-4-1-6-4-8-8l2-2 1-2-1-4-2-2H7C5 4 4 5 4 7c1 11 10 19 20 20 2 0 3-1 3-2v-3l-2-2z"/>
    </symbol>
    <symbol id="icon-person-18" viewBox="0 0 32 32">
      <path d="M16 16a5 5 0 1 0 0-11 5 5 0 0 0 0 11zm0 3c-4 0-11 1-11 5v1l2 2h18l2-2v-1c0-4-7-5-11-5z"/>
    </symbol>
    <symbol id="icon-send" viewBox="0 0 32 32">
      <path d="M32 0 0 18l10 4L26 7 14 23v9l6-7 7 3 5-28z"/>
    </symbol>
    <symbol id="icon-logo-6" viewBox="0 0 32 32">
      <path d="M16 15v-2h1l1 1h-1v-1h-1v2h1v-1h1v1h-2zM18 15v-2h1l1 1v1h-1c-1 0 0 0 0 0h-1zm1 0v-2 2zM20 13h1v2l1-2v2-1l-1 1v-1 1h-1v-2zM23 13h1v1h-1v1-2zm0 1h1v-1h-1v1zM25 13h1v2h-2l1-2zm1 2-1-1v1zM27 13l1 1v-1 2l-1-1v1-2zM29 14l-1-1h1v1l1-1v2h-1v-1zM17 16v2h-1v-2h1zM18 18v-1h-1v1l1-2v2zm-1-1h1-1zM19 17h1a1 1 0 0 1-1 1v-1a1 1 0 0 1-1 0h1v-1a1 1 0 0 1 0 1h1-1zM21 17v1-2 1zM22 18v-2 2zM23 16v1-1 2-1 1h-1v-2h1zM25 16v1h-1 1-1 1v1h-1v-2h1zM6 10l8 1v7l-8-2v-6zm0-1v8l9 2v-8L6 9z"/>
      <path d="m11 22-9-2v-7l9 2v7z"/>
      <path d="m6 9 8 2-4 3-7-2 3-3zm0 0-4 4 9 2 4-4-9-2zM11 22l4-3-4-1v4z"/>
    </symbol>
    <symbol id="icon-logo-5" viewBox="0 0 32 32">
      <path d="M8 20v1H7v-2h1v1zm-1 0h1-1zm1 1-1-1v1h1zM10 21H9v-2h1v2zm-1-1h1-1zM12 21h-1v-2h1l1 2h-1zm0 0v-1l-1 1h1zM15 21h-1v-1 1h-1v-2h1v2-2h1v2zM17 21h-1v-2h1v1a1 1 0 0 1 0 1zm0 0v-1h-1v1h1zM12 9s6 2 5 4v5s-5-2-5-5V9zM22 17l4-1v-2l-4 3z"/>
      <path d="m22 17 4-3v-4s-8 3-8 6v7l1-1c0-2 1-4 3-5z"/>
      <path d="M21 20v-2a6 6 0 0 0-1 4l1-1v-1zM21 20v1c2-1 5-3 5-5l-4 2-1 2z"/>
    </symbol>
    <symbol id="icon-logo-4" viewBox="0 0 32 32">
      <path d="m7 13-1 1 1 2 2-2-2-1zM17 13l-1-2-3-1-3 1-1 2v5s8-1 8-5zM3 19l1 2 2 1 2-1 1-2v-3s-6 1-6 3zm3 1H5v-1h2c1 0 0 0 0 0v1H6zM11 20v-1 1zm2 0h-2l1-1c1 0 0 0 0 0h1v1zm-1 0v-1 1zm1 0v-1h1-1v1h1-1zm2-1h-1v1-1h1zm1 1h-1 1-1v-1h1-1v1h1zm0 0v-1h1v1h-1zm0 0h1v-1h-1v1zm2 0v-1h1l-1 1c-1 0 0 0 0 0zm0 0v-1 1zm2 0h-1 1-1v-1h1-1v1h1zm1-1h-1v1-1h1zm1 1h-1 1-1v-1h1-1v1h1zm0 0v-1h1v1h-1zm0 0h1v-1h-1v1zm2 0h-1v-1h1c1 0 0 0 0 0h-1l1 1h-1 1z"/>
    </symbol>
    <symbol id="icon-logo-3" viewBox="0 0 32 32">
      <path d="M11 22h-1v-1a1 1 0 0 1 1 0h-1v1h1zM13 21v1h-1v-1h1zm0 0h-1v1h1v-1zM14 22l1-1v1-1l-1 1v-1 1-1 1zM16 22v-1 1zm0-1zM18 22h-1v-1l1 1zm-1 0h1l-1-1v1zM19 21v1-1h1v1h-1v-1 1-1zM21 22l-1-1h1v1zM14 19l3-2 1-3-1-1-1 3-2 3z"/>
      <path d="m14 19 2-3v-3l-1-2a6 6 0 0 1-1 8zM20 15l-2 3-1 1 2-1 1-2v-1z"/>
      <path d="m19 15-1-1-1 3-2 2h1l2-1 1-3zM14 11l-1-1-3 1-1 3 1 3 3 2 2-4-1-4zM22 15l-2-3-4-2h-2l8 7v-2z"/>
    </symbol>
    <symbol id="icon-logo-2" viewBox="0 0 32 32">
      <path d="M15 9a7 7 0 0 0-1 0l-3 1v6a12 12 0 0 1 4 0h-1a10 10 0 0 0-4 2V9a9 9 0 0 1 5-1 10 10 0 0 1 1 0v1h-1zm2 1a9 9 0 0 0 5-2v9a9 9 0 0 1-6 1V9a7 7 0 0 0 1 1zm4 0h-1a10 10 0 0 1-3 0h-1v7h1a8 8 0 0 0 4-1v-6zM11 21l-1-1v3h1v-1h-1v-1h1c1 0 0 0 0 0zM13 21a1 1 0 0 0-1-1v3a1 1 0 0 0 1-1v-1zm-1 1v-1 1zM15 23v-3l-1 2v-2 3-2 1l1-1v2zM17 21h-1v-1 3-1h1v-1zm-1 0zM18 20l-1 3h1v-1 1-3zm0 2v-1 1zM20 22l-1-2v3-2l1 2v-3 2zM22 20l-1 1v-1 3h1v-3zM10 23v1-1zM11 23v1-1 1-1zm0 0zM12 23h1-1v1l1-1h-1zM14 23h-1v1h1v-1zM15 23h-1v1h1v-1zM16 23h-1v1-1l1 1v-1zM16 23h1-1 1-1v1h1v-1h-1zM19 23h-1v1-1h1v1-1zM20 23v1-1zM21 23v1-1 1-1zm0 0zM22 23v1-1z"/>
    </symbol>
    <symbol id="icon-logo-1" viewBox="0 0 32 32">
      <path d="m11 9 3 2h-4v10h10v-4l2 2V9H11zm9 8-6-6h6v6zm-2 2h-7v-6h1v6h6zm-5 3v1l-1-1 1 1v-1zm0 1h1v-1h-1v1zm0-1 1 1h-1v-1zm1 1h1c1 0 0 0 0 0v-1h-1 1v1h-1zm1 0zm0-1zm1 1h1-1v-1h1-1c-1 0 0 0 0 0v1zm2 0v-1h-1v1h1zm-1-1v1-1z"/>
    </symbol>
    <symbol id="icon-linkedin" viewBox="0 0 32 32">
      <path d="M32 32V20c0-5-1-10-8-10-3 0-5 2-6 4v-3h-7v21h7V21c0-2 0-5 4-5 3 0 3 3 3 6v10h7zM1 11h6v21H1V11zM4 0C2 0 0 2 0 4s2 4 4 4 4-2 4-4-2-4-4-4z"/>
    </symbol>
    <symbol id="icon-facebook" viewBox="0 0 32 32">
      <path d="M21 5h3V0h-4c-4 0-7 3-7 8v4H8v6h5v14h6V18h4l1-6h-5V8c0-2 0-3 2-3z"/>
    </symbol>
    <symbol id="icon-twitter" viewBox="0 0 32 32">
      <path d="m32 6-4 1c2-1 3-2 3-4l-4 2a7 7 0 0 0-11 6C10 11 5 8 2 4a7 7 0 0 0 2 9l-3-1c0 3 3 6 6 7a7 7 0 0 1-3 0c0 2 3 4 6 4a13 13 0 0 1-10 3A19 19 0 0 0 29 9l3-3z"/>
    </symbol>
    <symbol id="icon-instagram" viewBox="0 0 32 32">
      <path d="m32 9-1-3c0-2-1-3-2-3l-2-2-4-1A110 110 0 0 0 6 1L3 3C2 3 1 4 1 6L0 9a110 110 0 0 0 1 17c0 2 1 3 2 3l3 2 3 1a117 117 0 0 0 18-1c2-1 3-2 4-5l1-3V9zm-3 13v3c-1 2-2 3-4 3l-2 1a113 113 0 0 1-16-1l-2-1-1-2-1-3A113 113 0 0 1 4 7l1-2 2-1 3-1a113 113 0 0 1 16 1l1 1 2 2v15z"/>
      <path d="M16 8a8 8 0 1 0 0 16 8 8 0 0 0 0-16zm0 13a5 5 0 1 1 0-10 5 5 0 0 1 0 10zM27 7a2 2 0 1 1-4 0 2 2 0 0 1 4 0z"/>
    </symbol>
    <symbol id="icon-astronaut" viewBox="0 0 32 32">
      <path fill="#2196f3" style="fill:var(--color1, #2196f3)" d="M32 5V4h-2l-1-2h-1l-1 2h-2a1 1 0 0 0 0 1l1 1v3h1l1-1 2 1a1 1 0 0 0 1-1l-1-2 2-1zm-2 1h-1l1 1h-1a1 1 0 0 0-1 0h-1V6l-1-1h2V4l1 1h1v1zM26 21h-1v1h1v-1zM26 23h-1v1h1v-1zM27 22h-1v1h1v-1zM25 22h-1v1h1v-1zM22 26h-1v1h1v-1zM22 29h-1v1h1v-1zM23 27h-1v2h1v-2zM21 27h-1v2h1v-2zM16 24h-1v1h1v-1zM16 26h-1v1h1v-1zM17 25h-1v1h1v-1zM15 25h-1v1h1v-1zM6 6H5v1h1V6zM6 8H5v1h1V8zM7 7H6v1h1V7zM5 7H4v1h1V7z"/>
      <path fill="#212121" style="fill:var(--color2, #212121)" d="m25 14-1-1-2 1-1 1-2 1h-1a7 7 0 0 0-3-14 7 7 0 0 0-6 11H6l-3 2-2 1a2 2 0 0 0 1 3h1l1-1 2-1h2l-6 5-1 2a2 2 0 0 0 0 2 2 2 0 0 0 2 0l2-1 1-2 1 1-2 2-1 1a2 2 0 0 0 0 3 2 2 0 0 0 2 0l4-4 1-1 5-6 4 1 3-2 2-1v-3zM2 18a1 1 0 0 1-1-1l2-1v1l-1 1zm4-2-2 1v-2l2-1v2zm15-7-1 3-4-2-1-1 2-5c2 0 4 3 4 5zM9 9a6 6 0 0 1 7-5l-2 4a2 2 0 1 0 0 4l2-1 4 2A6 6 0 0 1 9 9zm6 1a1 1 0 0 1-2 0 1 1 0 0 1 2 0zM2 25a1 1 0 0 1 0-1l1-1v1l-1 1zm4 4H5a1 1 0 0 1 0-1l1-1 1 1-1 1zm3-4-2 2v-1l1-1v-1l-1-2H6l-2 1H3l3-3 4 4-1 1zm7-7v1l-5 5-5-5 3-2a1 1 0 0 0 0-1H7v-2h3a7 7 0 0 0 6 2l3 1v2l-3-1zm4 1v-2l1-1 1 1-2 2zm4-3-1 1-1-2h1s0-1 0 0a1 1 0 0 1 1 1z"/>
      <path fill="#212121" style="fill:var(--color2, #212121)" d="m14 19-3-3-2 3 2 2 3-2zm-3 1-1-1 1-1 1 1-1 1zM17 5v1l2 2h1c0-2-2-3-3-3zM20 9h-1v1h1V9z"/>
    </symbol>
    <symbol id="icon-diagram" viewBox="0 0 32 32">
      <path fill="#2196f3" style="fill:var(--color1, #2196f3)" d="M15 15h1v5h-1v-5zM19 17h1v3h-1v-3zM11 19h1v1h-1v-1zM7 18h2v2H7v-2z"/>
      <path fill="#212121" style="fill:var(--color2, #212121)" d="M2 28h25l2-1v-2l-2-2V10l3-3a2 2 0 1 0-1-1l-2 2V7l-2-2H4L2 7v16l-2 2v2l2 1zM30 5a1 1 0 1 1 0 1 1 1 0 0 1 0-1zM3 7l1-1h21l1 1v2l-1 1V8H4v13l1 1h19l1-1v-9l1-1v12H3V7zm5 7a2 2 0 1 0 1 3l2 1 1-1 4-4 3 3h1l3-3v8H5V9h18v2l-3 4-4-3h-1l-4 4h-1v-1l-2-1zm1 1a1 1 0 1 1-2 0 1 1 0 0 1 2 0zm3 9h5v1h-5v-1zM1 25l1-1h9v1l1 1h5l1-1v-1h9l1 1v2H1v-2z"/>
    </symbol>
    <symbol id="icon-clock" viewBox="0 0 32 32">
      <path fill="#212121" style="fill:var(--color2, #212121)" d="M31 15a15 15 0 1 0-19 15v-1l4-12a2 2 0 1 0-1-3l-5-6a1 1 0 0 0-1 1l5 5 1 3-4 11a14 14 0 1 1 11 0l-1-2a1 1 0 0 0-1 0l-4 3a1 1 0 0 0 1 1l5 2a1 1 0 0 0 0-1v-2c6-2 9-8 9-14zm-15 0a1 1 0 1 1 0 1 1 1 0 0 1 0-1zm2 15 2-2 1 2h-3z"/>
      <path fill="#2196f3" style="fill:var(--color1, #2196f3)" d="M15 3v1a1 1 0 1 0 2 0V3a1 1 0 0 0-2 0zM4 15a1 1 0 0 0 0 1h1a1 1 0 1 0 0-1H4zM28 16a1 1 0 1 0 0-1h-1a1 1 0 0 0 0 1h1z"/>
    </symbol>
    <symbol id="icon-antenna" viewBox="0 0 32 32">
      <path fill="#212121" style="fill:var(--color2, #212121)" d="m31 22-9-8 1-5h1a2 2 0 1 0-2-1h-5L9 0H8L7 2l1 1a15 15 0 0 0 2 18v7H4c-2 0-3 1-3 2v1l1 1h24l1-1v-1l-3-2h-6v-3a15 15 0 0 0 10-1h1v1-1l2-1v-1zM23 6a1 1 0 1 1 1 2 1 1 0 0 1-1-2zm-1 4-1 3-1-1 2-2zm-1-1-2 2-1-2h3zm3 20 2 1v1H2v-1l2-1h20zm-7-2v1h-6v-1h6zm-6-1v-4c0-2 1-3 3-3s3 1 3 3v4h-6zm7-2v-2c0-2-2-4-4-4l-3 2C7 16 6 9 8 4l19 19c-3 1-6 2-9 1zm11-1L8 2l1-1 8 8 13 13-1 1z"/>
      <path fill="#2196f3" style="fill:var(--color1, #2196f3)" d="M14 20a2 2 0 1 0 0 3 2 2 0 1 0 0-3zm0 2a1 1 0 0 1 0-1 1 1 0 0 1 0 1z"/>
    </symbol>
    <symbol id="icon-smartphone" viewBox="0 0 32 32">
      <path d="M23 0H9C7 0 6 1 6 3v26c0 2 1 3 3 3h14c2 0 3-1 3-3V3c0-2-1-3-3-3zM9 2h14l1 1v21H8V3l1-1zm14 28H9l-1-1v-3h16v3l-1 1z"/>
      <path d="M11 27v2H9v-2h2z"/>
    </symbol>
    <symbol id="icon-envelope" viewBox="0 0 32 32">
      <path d="M29 4H3C1 4 0 5 0 7v18c0 2 1 3 3 3h26c2 0 3-1 3-3V7c0-2-1-3-3-3zm0 2L16 18 3 6h26zm0 20H3l-1-1V8l13 12a1 1 0 0 0 2 0L30 8v17l-1 1z"/>
    </symbol>
  </defs>
</svg>
